<?xml version="1.0" encoding="utf-8"?>
<!-- Generator: Adobe Illustrator 19.1.0, SVG Export Plug-In . SVG Version: 6.00 Build 0)  -->
<svg version="1.1" id="圖層_1" xmlns="http://www.w3.org/2000/svg" xmlns:xlink="http://www.w3.org/1999/xlink" x="0px" y="0px"
	 viewBox="0 0 250 100" style="enable-background:new 0 0 250 100;" xml:space="preserve">
<style type="text/css">
	.st0{fill:#FFFFFF;}
</style>
<g>
	<path class="st0" d="M69.3,49.7V28.2c0-2.6,0.8-2.9,3-2.9h1.4v-2.6H59.5v2.6H61c2,0,3,0.7,3,2.9v21.5c0,2.2-1.2,3.1-3.2,3.1h-1.4
		v2.6h14.4v-2.6h-1.3C70.3,52.8,69.3,52.3,69.3,49.7"/>
	<path class="st0" d="M56.7,47.5h-2.5c-1.9,4.5-5.4,6.2-9.2,6.2c-6.5,0-11.7-6.2-11.7-14.6c0-9.1,3.7-15,11.1-15
		c6.1,0,8.5,3.1,9.5,7h2.3c-0.3-2.3-0.7-6.3-0.7-7.2c-2-0.4-5.8-2.4-11.5-2.4c-10,0-17.2,6.8-17.2,17.6c0,10.5,8.3,17.2,17.1,17.2
		c4.1,0,8.1-1,11.5-3.5C55.6,52,56.2,49.5,56.7,47.5"/>
	<path class="st0" d="M98.4,25.3c2.9,0,3.7,2,3.7,4.2v1.8h2.5v-8.6H76.8v8.6h2.5v-1.8c0-2.2,0.8-4.2,3.7-4.2h5v24.4
		c0,2.2-1.3,3.1-3.3,3.1h-1.5v2.7h15v-2.7h-1.5c-2,0-3.4-0.9-3.4-3.1V25.3H98.4z"/>
	<path class="st0" d="M151.3,46.6h-2.5v0.6c0,2.7-0.8,5.7-6.6,5.7h-10.1L151,25.3v-2.7h-24.8v8.9h2.5v-1.1c0-2.8,1.3-5.1,5.1-5.1
		c2.3,0,10.5,0,10.5,0l-18.7,27.5v2.6h25.7V46.6z"/>
	<path class="st0" d="M158.9,27.6v22.5c0,2.4-1.6,2.7-3,2.7h-0.8v2.6h26.5v-9h-2.4v0.9c0,2.9-1.4,5.4-5,5.4h-9.8V39.9h5.9
		c2.4,0,2.9,2,2.9,3.4v1.4h2.6V32.4h-2.6v1.1c0,1.4-0.5,3.4-2.9,3.4h-5.9V25.3h9.3c4.7,0,4.8,3.9,4.8,5.3v0.7h2.5v-8.7h-26.1v2.6
		h0.6C157.8,25.3,158.9,25.6,158.9,27.6"/>
	<path class="st0" d="M217.1,25.3h0.7v-2.6h-11.7v2.6h0.7c2.6,0,3.5,0.9,3.5,3.1v18.2l-16.4-24h-8.6v2.6h0.8c1.6,0,2.8,0.6,2.8,3.2
		v21.5c0,2.2-1.6,2.9-2.8,2.9h-1.1v2.7h11.2v-2.7h-1.1c-1.2,0-3-0.3-3-2.9V29.9l17.5,25.6h3.8v-27C213.6,26.2,214.5,25.3,217.1,25.3
		"/>
	<path class="st0" d="M122,52.8h-1.3c-2.2,0-3.2-0.5-3.2-3.1V28.2c0-2.6,0.8-2.9,3-2.9h1.4v-2.6h-14.2v2.6h1.5c2,0,3,0.7,3,2.9v21.5
		c0,2.2-1.2,3.1-3.2,3.1h-1.4v2.6H122V52.8z"/>
	<path class="st0" d="M8.8,89.5h-3v-4.4h3c1.7,0,2.6,0.9,2.6,2.2C11.5,88.7,10.6,89.5,8.8,89.5 M5.8,79.6h2.6c1.7,0,2.6,0.6,2.6,2
		c0,1.4-0.9,2.1-2.6,2.1H5.8V79.6z M10.8,84.4c1-0.3,1.9-1.2,1.9-2.8c0-2.2-1.6-3.4-4.2-3.4H4.2V91h4.6c2.6,0,4.2-1.3,4.2-3.6
		C13.1,85.9,12.1,84.7,10.8,84.4"/>
	<polygon class="st0" points="18.9,91 27,91 27,89.5 20.5,89.5 20.5,85.2 26.4,85.2 26.4,83.7 20.5,83.7 20.5,79.7 27,79.7 27,78.2 
		18.9,78.2 	"/>
	<polygon class="st0" points="32.2,79.7 36.7,79.7 36.7,91 38.3,91 38.3,79.7 42.8,79.7 42.8,78.2 32.2,78.2 	"/>
	<polygon class="st0" points="47.5,79.7 52,79.7 52,91 53.6,91 53.6,79.7 58.1,79.7 58.1,78.2 47.5,78.2 	"/>
	<polygon class="st0" points="63.7,91 71.8,91 71.8,89.5 65.3,89.5 65.3,85.2 71.2,85.2 71.2,83.7 65.3,83.7 65.3,79.7 71.8,79.7 
		71.8,78.2 63.7,78.2 	"/>
	<path class="st0" d="M79.6,84.2v-4.5h3.1c1.7,0,2.6,0.8,2.6,2.3c0,1.4-0.9,2.3-2.6,2.3H79.6z M86.8,81.9c0-2.4-1.6-3.7-4.2-3.7
		h-4.7V91h1.6v-5.4h2.3l3.7,5.4h1.9l-3.8-5.5C85.6,85.2,86.8,84,86.8,81.9"/>
	<path class="st0" d="M106.9,84l-2.2-0.6c-1.3-0.4-2-0.9-2-2c0-1.3,1.1-2.1,2.6-2.1c1.7,0,2.6,0.8,3,2h1.6c-0.5-2-2-3.4-4.7-3.4
		c-2.4,0-4.2,1.5-4.2,3.6c0,1.9,1.3,2.8,3.1,3.3l2.3,0.6c1.5,0.4,2,1,2,2c0,1.4-1.2,2.2-2.8,2.2c-1.6,0-2.8-0.7-3.2-2.1h-1.7
		c0.5,2.2,2.4,3.5,4.9,3.5c2.5,0,4.4-1.4,4.4-3.7C110.1,85.7,109,84.6,106.9,84"/>
	<polygon class="st0" points="114.8,79.7 119.2,79.7 119.2,91 120.9,91 120.9,79.7 125.3,79.7 125.3,78.2 114.8,78.2 	"/>
	<path class="st0" d="M132.4,85.7l2.1-5.4l2.1,5.4H132.4z M133.7,78.2l-5,12.8h1.7l1.5-3.8h5.3l1.5,3.8h1.7l-5-12.8H133.7z"/>
	<path class="st0" d="M147.4,84.2v-4.5h3.1c1.7,0,2.6,0.8,2.6,2.3c0,1.4-0.9,2.3-2.6,2.3H147.4z M154.6,81.9c0-2.4-1.6-3.7-4.2-3.7
		h-4.7V91h1.6v-5.4h2.3l3.7,5.4h1.9l-3.8-5.5C153.4,85.2,154.6,84,154.6,81.9"/>
	<polygon class="st0" points="159.5,79.7 164,79.7 164,91 165.6,91 165.6,79.7 170.1,79.7 170.1,78.2 159.5,78.2 	"/>
	<path class="st0" d="M180.7,84l-2.2-0.6c-1.3-0.4-2-0.9-2-2c0-1.3,1.1-2.1,2.6-2.1c1.7,0,2.6,0.8,3,2h1.6c-0.5-2-2-3.4-4.7-3.4
		c-2.4,0-4.2,1.5-4.2,3.6c0,1.9,1.3,2.8,3.1,3.3l2.3,0.6c1.5,0.4,2,1,2,2c0,1.4-1.2,2.2-2.8,2.2c-1.6,0-2.8-0.7-3.2-2.1h-1.7
		c0.5,2.2,2.4,3.5,4.9,3.5c2.5,0,4.4-1.4,4.4-3.7C183.9,85.7,182.7,84.6,180.7,84"/>
	<polygon class="st0" points="207,87.9 200.2,78.2 198.6,78.2 198.6,91 200.2,91 200.2,80.8 207.3,91 208.5,91 208.5,78.2 207,78.2 
			"/>
	<path class="st0" d="M220.1,89.7c-2.5,0-4.1-2.1-4.1-5.1c0-3,1.7-5.1,4.1-5.1c2.5,0,4.1,2.1,4.1,5.1
		C224.2,87.6,222.5,89.7,220.1,89.7 M220.1,78c-3.4,0-5.8,2.7-5.8,6.6c0,3.8,2.4,6.6,5.8,6.6c3.4,0,5.8-2.7,5.8-6.6
		C225.9,80.7,223.4,78,220.1,78"/>
	<polygon class="st0" points="244,78.2 241.4,88.4 238.7,78.2 237.4,78.2 234.7,88.4 232.1,78.2 230.5,78.2 233.8,91 235.3,91 
		238.1,81 240.7,91 242.2,91 245.6,78.2 	"/>
</g>
</svg>
