<?xml version="1.0" encoding="utf-8"?>
<!-- Generator: Adobe Illustrator 19.1.0, SVG Export Plug-In . SVG Version: 6.00 Build 0)  -->
<svg version="1.1" id="圖層_1" xmlns="http://www.w3.org/2000/svg" xmlns:xlink="http://www.w3.org/1999/xlink" x="0px" y="0px"
	 viewBox="0 0 91.8 76" style="enable-background:new 0 0 91.8 76;" xml:space="preserve">
<style type="text/css">
	.st0{fill:#333333;}
</style>
<path class="st0" d="M90.3,37.5C90.6,58.1,74.1,75,53.5,75.3c-4.1,0.1-8.1-0.6-11.8-1.8c2.6,0.6,5.3,0.9,8.1,0.8
	C69.3,74,84.9,58,84.6,38.5C84.3,19,68.3,3.4,48.8,3.7c-9.3,0.1-17.7,3.8-24,9.8C31.5,5.8,41.4,0.8,52.5,0.7
	C73.2,0.5,90.1,17,90.3,37.5 M33.1,50c-6.1,0-10.9-5.8-10.9-13.7c0-8.5,3.5-14,10.4-14c2.5,0,4.3,0.6,5.7,1.5
	c0.8-0.8,1.7-1.6,2.6-2.3c-2-0.7-4.9-1.6-8.7-1.6c-9.3,0-16.1,6.4-16.1,16.5c0,9.8,7.8,16.1,16,16.1c3,0,6-0.6,8.7-2
	c-0.8-0.7-1.6-1.4-2.3-2.1C36.9,49.5,35,50,33.1,50 M13.4,46.4V19.9c-2.8,1.2-6.9,2.2-10.2,2.7v1.3L5.7,24c2.3,0.1,2.5-0.4,2.5,2.3
	v20.2c0,3.8-0.3,4.2-4.9,4.6v1.4h15.2v-1.4C13.8,50.6,13.4,50.2,13.4,46.4 M54.1,50c-3.5,0-6.7-2-8.6-5.2c-0.1-0.2-0.2-0.4-0.4-0.6
	c-1.2-2.2-1.9-4.9-1.9-7.9c0-2.9,0.4-5.4,1.2-7.5c0.2-0.5,0.4-0.9,0.6-1.3c1.7-3.3,4.5-5.2,8.6-5.2c5.7,0,7.9,2.9,8.8,6.6h2.2
	c-0.3-2.2-0.7-5.9-0.6-6.7c-1.9-0.4-5.4-2.2-10.7-2.2c-3.3,0-6.2,0.8-8.7,2.3c-1.3,0.8-2.4,1.7-3.4,2.8c-2.5,2.8-4,6.7-4,11.4
	c0,4.5,1.6,8.2,4.2,11c0.8,0.8,1.7,1.6,2.6,2.2c2.7,1.9,5.9,2.9,9.2,2.9c3.8,0,7.6-0.9,10.8-3.3c0.1-0.8,0.7-3.1,1.2-4.9h-2.4
	C60.9,48.4,57.6,50,54.1,50 M76.1,40v-3.6c0-2.4-1.1-3.4-2.7-3.4c-1,0-2.1,0.7-2.8,1.4v-6.7c-0.8,0.3-2.1,0.5-3,0.7v0.5
	c1.2,0.1,1.3,0.2,1.3,1.4v9.6c0,1.3-0.2,1.4-1.3,1.6V42h4.3v-0.5c-1.1-0.1-1.2-0.3-1.2-1.5v-4.8c0.5-0.6,1.2-0.9,1.9-0.9
	c1.2,0,1.8,0.8,1.8,2.4v3.4c0,1.3-0.1,1.4-1.2,1.5v0.5h4.2v-0.5C76.2,41.4,76.1,41.3,76.1,40 M65.6,41.1c-0.5,0-1.1-0.3-1.1-1.9
	v-5.1h2c0.3-0.2,0.3-0.6,0.1-0.8h-2.2v-2.8l-0.3-0.1l-1.5,1.4v1.4h-0.9l-0.6,0.6l0.1,0.2h1.3v5.8c0,1.6,0.7,2.4,2,2.4
	c0.2,0,0.5-0.1,0.8-0.3l1.4-0.7l-0.2-0.5C66.5,40.9,66.1,41.1,65.6,41.1 M7.8,64.8v-0.4c0.7-0.1,0.8-0.2,0.6-0.7
	c-0.1-0.4-0.3-0.9-0.5-1.5H5.6c-0.2,0.4-0.3,0.9-0.5,1.3c-0.2,0.6-0.1,0.8,0.7,0.9v0.4H3.2v-0.4c0.8-0.1,0.9-0.2,1.3-1.2l2.4-6
	l0.5-0.1c0.7,2,1.5,4.1,2.2,6.1c0.4,1,0.5,1.2,1.3,1.2v0.4H7.8z M6.8,59L6.8,59c-0.4,0.9-0.7,1.8-1,2.7h1.9L6.8,59z M15.1,64.8v-0.3
	c0.6-0.1,0.6-0.1,0.6-0.9v-2c0-0.8-0.3-1.2-0.9-1.2c-0.4,0-0.7,0.2-1,0.4v2.8c0,0.7,0.1,0.8,0.6,0.9v0.3h-2.7v-0.3
	c0.7-0.1,0.8-0.1,0.8-0.9v-2.4c0-0.7-0.1-0.8-0.7-0.9V60c0.6-0.1,1.3-0.2,1.9-0.5v0.9c0.2-0.2,0.5-0.3,0.7-0.5
	c0.3-0.2,0.6-0.3,0.9-0.3c0.9,0,1.5,0.7,1.5,1.8v2.2c0,0.7,0.1,0.8,0.7,0.9v0.3H15.1z M21.9,64.8v-0.3c0.6-0.1,0.6-0.1,0.6-0.9v-2
	c0-0.8-0.3-1.2-0.9-1.2c-0.4,0-0.7,0.2-1,0.4v2.8c0,0.7,0.1,0.8,0.6,0.9v0.3h-2.7v-0.3c0.7-0.1,0.8-0.1,0.8-0.9v-2.4
	c0-0.7-0.1-0.8-0.6-0.9V60c0.6-0.1,1.3-0.2,1.9-0.5v0.9c0.2-0.2,0.5-0.3,0.7-0.5c0.3-0.2,0.6-0.3,0.9-0.3c0.9,0,1.5,0.7,1.5,1.8v2.2
	c0,0.7,0.1,0.8,0.7,0.9v0.3H21.9z M25.3,64.8v-0.3c0.7-0.1,0.8-0.1,0.8-0.9v-2.3c0-0.7-0.1-0.8-0.7-0.9v-0.3
	c0.7-0.1,1.4-0.2,1.9-0.4v4c0,0.8,0.1,0.9,0.8,0.9v0.3L25.3,64.8L25.3,64.8z M25.9,58c0-0.4,0.3-0.7,0.7-0.7c0.4,0,0.7,0.3,0.7,0.7
	s-0.3,0.7-0.7,0.7C26.3,58.7,25.9,58.4,25.9,58 M34.2,60.1c-0.6,0.1-0.7,0.2-1,0.8c-0.4,0.9-1,2.3-1.7,4.1h-0.4
	c-0.6-1.4-1.1-2.7-1.6-4.1c-0.2-0.6-0.4-0.7-0.9-0.8v-0.3h2.7v0.3c-0.6,0.1-0.6,0.2-0.4,0.6c0.3,0.8,0.7,2,1,2.6
	c0.3-0.7,0.7-1.7,0.9-2.5c0.2-0.4,0.1-0.6-0.5-0.7v-0.3h2.1v0.3H34.2z M39,63.7c-0.7,1-1.6,1.2-2,1.2c-1.5,0-2.3-1.1-2.3-2.5
	c0-0.9,0.3-1.6,0.8-2.1s1.1-0.8,1.7-0.8l0,0c1,0,1.8,0.9,1.8,1.8c0,0.2-0.1,0.4-0.3,0.4c-0.2,0-1.6,0.1-2.9,0.2c0,1.4,0.8,2,1.6,2
	c0.5,0,0.9-0.2,1.3-0.5L39,63.7z M35.9,61.5c0.5,0,1,0,1.6,0c0.2,0,0.3,0,0.3-0.2c0-0.6-0.3-1.2-0.8-1.2C36.5,60,36,60.5,35.9,61.5
	 M42,60.8c0.4-0.7,0.9-1.2,1.3-1.2s0.7,0.3,0.7,0.7c0,0.3-0.2,0.6-0.5,0.7c-0.1,0.1-0.3,0-0.3,0c-0.2-0.2-0.3-0.2-0.5-0.2
	c-0.3,0-0.5,0.2-0.8,0.7v2.1c0,0.7,0.1,0.8,1,0.9v0.3h-3v-0.3c0.7-0.1,0.8-0.1,0.8-0.9v-2.5c0-0.7-0.1-0.7-0.7-0.8V60
	c0.6-0.1,1.3-0.2,1.9-0.5L42,60.8L42,60.8z M47.9,61.2c-0.3-0.7-0.7-1.2-1.2-1.2c-0.4,0-0.7,0.3-0.7,0.7s0.3,0.7,0.9,0.9
	c0.9,0.4,1.5,0.8,1.5,1.7c0,1.1-1.1,1.7-2,1.7c-0.6,0-1.2-0.2-1.4-0.4c-0.1-0.2-0.2-1-0.2-1.5h0.3c0.2,0.7,0.8,1.5,1.5,1.5
	c0.4,0,0.7-0.3,0.7-0.7s-0.2-0.7-0.9-1c-0.6-0.3-1.5-0.7-1.5-1.7c0-0.9,0.7-1.6,1.9-1.6c0.5,0,0.8,0.1,1.1,0.2
	c0.1,0.3,0.3,1,0.3,1.3L47.9,61.2z M53.2,65c-0.3,0-0.5-0.1-0.6-0.2c-0.2-0.2-0.2-0.3-0.3-0.5c-0.5,0.3-1,0.7-1.3,0.7
	c-0.9,0-1.5-0.7-1.5-1.5c0-0.6,0.3-0.9,0.9-1.1c0.7-0.2,1.6-0.5,1.8-0.8v-0.3c0-0.8-0.3-1.2-0.8-1.2c-0.2,0-0.3,0.1-0.4,0.2
	c-0.1,0.2-0.2,0.4-0.3,0.8c-0.1,0.3-0.2,0.3-0.4,0.3c-0.3,0-0.6-0.3-0.6-0.5s0.1-0.3,0.4-0.5c0.4-0.3,1.2-0.7,1.9-0.8
	c0.4,0,0.8,0.1,1.1,0.3c0.5,0.4,0.6,0.9,0.6,1.5v2c0,0.5,0.2,0.7,0.4,0.7c0.1,0,0.3,0,0.4-0.1l0.1,0.3L53.2,65z M52.2,62
	c-0.2,0.1-0.5,0.3-0.8,0.4c-0.4,0.2-0.6,0.4-0.6,0.8c0,0.6,0.4,0.9,0.7,0.9c0.2,0,0.5-0.1,0.6-0.3V62H52.2z M57,60.8
	c0.4-0.7,0.9-1.2,1.3-1.2s0.7,0.3,0.7,0.7c0,0.3-0.2,0.6-0.5,0.7c-0.2,0.1-0.3,0-0.3,0c-0.2-0.2-0.3-0.2-0.5-0.2
	c-0.3,0-0.5,0.2-0.8,0.7v2.1c0,0.7,0.1,0.8,1,0.9v0.3h-3v-0.3c0.7-0.1,0.8-0.1,0.8-0.9v-2.5c0-0.7-0.1-0.7-0.7-0.8V60
	c0.6-0.1,1.3-0.2,1.9-0.5L57,60.8L57,60.8z M65,60c-0.6,0.1-0.7,0.2-1,0.8c-0.3,0.6-0.7,1.6-1.4,3.3c-0.8,1.9-1,2.6-1.2,3.2
	c-0.1,0.2-0.2,0.3-0.4,0.3c-0.3,0-0.8-0.3-0.8-0.7c0-0.2,0.1-0.3,0.3-0.4c0.4-0.2,0.7-0.5,0.9-0.9c0.2-0.3,0.2-0.5,0.3-0.6
	c0.1-0.2,0-0.3,0-0.5c-0.6-1.5-1.1-3.1-1.4-3.7c-0.2-0.5-0.3-0.7-0.9-0.8v-0.3h2.7V60c-0.5,0.1-0.6,0.2-0.5,0.6l0.9,2.7
	c0.3-0.7,0.7-1.9,0.9-2.6c0.1-0.4,0-0.5-0.6-0.6v-0.3h2.1L65,60L65,60z"/>
</svg>
