<?xml version="1.0" encoding="utf-8"?>
<!-- Generator: Adobe Illustrator 19.1.0, SVG Export Plug-In . SVG Version: 6.00 Build 0)  -->
<svg version="1.1" id="圖層_1" xmlns="http://www.w3.org/2000/svg" xmlns:xlink="http://www.w3.org/1999/xlink" x="0px" y="0px"
	 viewBox="-1342 812.8 150 76" style="enable-background:new -1342 812.8 150 76;" xml:space="preserve">
<style type="text/css">
	.st0{fill:#FFFFFF;}
</style>
<g>
	<path class="st0" d="M-1302.4,860.7c-1.5,0-2.2-0.4-2.2-2.2v-15.3c0-1.8,0.6-2.1,2.1-2.1h1v-1.9h-10.1v1.9h1.1
		c1.4,0,2.1,0.5,2.1,2.1v15.3c0,1.6-0.8,2.2-2.3,2.2h-1v1.9h10.2v-1.9H-1302.4z"/>
	<path class="st0" d="M-1268.2,860.7c-1.5,0-2.2-0.4-2.2-2.2v-15.3c0-1.8,0.6-2.1,2.1-2.1h1v-1.9h-10.1v1.9h1.1
		c1.4,0,2.1,0.5,2.1,2.1v15.3c0,1.6-0.8,2.2-2.3,2.2h-1v1.9h10.2v-1.9H-1268.2z"/>
	<path class="st0" d="M-1299.4,839.3v6.1h1.7v-1.3c0-1.5,0.6-3,2.7-3h3.6v17.3c0,1.6-0.9,2.2-2.4,2.2h-1v1.9h10.6v-1.9h-1
		c-1.4,0-2.4-0.6-2.4-2.2v-17.3h3.6c2.1,0,2.7,1.4,2.7,3v1.3h1.7v-6.1H-1299.4z"/>
	<path class="st0" d="M-1248.2,856.2v0.4c0,1.9-0.5,4-4.7,4h-7.2l13.3-19.5v-1.9h-17.6v6.3h1.8v-0.7c0-2,0.9-3.7,3.6-3.7
		c1.6,0,7.5,0,7.5,0l-13.3,19.5v1.9h18.3v-6.3H-1248.2z"/>
	<path class="st0" d="M-1226.6,856.2v0.6c0,2.1-1,3.9-3.6,3.9h-6.9v-9.1h4.2c1.7,0,2.1,1.4,2.1,2.4v1h1.8v-8.7h-1.8v0.8
		c0,1-0.4,2.4-2.1,2.4h-4.2v-8.2h6.6c3.3,0,3.4,2.8,3.4,3.8v0.5h1.8v-6.2h-18.5v1.9h0.4c1.6,0,2.4,0.2,2.4,1.6v16
		c0,1.7-1.1,1.9-2.1,1.9h-0.6v1.9h18.9v-6.4h-1.8L-1226.6,856.2L-1226.6,856.2z"/>
	<path class="st0" d="M-1207.5,839.3v1.9h0.5c1.8,0,2.5,0.6,2.5,2.2v12.9l-11.6-17h-6.1v1.9h0.6c1.1,0,2,0.5,2,2.3v15.3
		c0,1.5-1.1,2-2,2h-0.8v1.9h8v-1.9h-0.8c-0.8,0-2.1-0.2-2.1-2v-14.2l12.5,18.2h2.7v-19.2c0-1.6,0.7-2.2,2.5-2.2h0.5v-1.9h-8.4
		L-1207.5,839.3L-1207.5,839.3z"/>
	<path class="st0" d="M-1321.9,861.3c-4.6,0-8.3-4.4-8.3-10.4c0-6.5,2.6-10.7,7.9-10.7c4.3,0,6,2.2,6.7,5h1.6
		c-0.2-1.6-0.5-4.5-0.5-5.1c-1.4-0.3-4.1-1.7-8.1-1.7c-7.1,0-12.2,4.9-12.2,12.5c0,7.5,5.9,12.3,12.2,12.3c2.9,0,5.8-0.7,8.2-2.5
		c0.1-0.6,0.5-2.3,0.9-3.8h-1.8C-1316.8,860.1-1319.2,861.3-1321.9,861.3"/>
</g>
</svg>
