<?xml version="1.0" encoding="utf-8"?>
<!-- Generator: Adobe Illustrator 19.1.0, SVG Export Plug-In . SVG Version: 6.00 Build 0)  -->
<svg version="1.1" id="圖層_1" xmlns="http://www.w3.org/2000/svg" xmlns:xlink="http://www.w3.org/1999/xlink" x="0px" y="0px"
	 viewBox="-1371 812.8 91.8 76" style="enable-background:new -1371 812.8 91.8 76;" xml:space="preserve">
<style type="text/css">
	.st0{fill:#FFFFFF;}
</style>
<path class="st0" d="M-1280.7,850.3c0.3,20.6-16.2,37.5-36.8,37.8c-4.1,0.1-8.1-0.6-11.8-1.8c2.6,0.6,5.3,0.9,8.1,0.8
	c19.5-0.3,35.1-16.3,34.8-35.8c-0.3-19.5-16.3-35.1-35.8-34.8c-9.3,0.1-17.7,3.8-24,9.8c6.7-7.7,16.6-12.7,27.7-12.8
	C-1297.8,813.3-1280.9,829.8-1280.7,850.3 M-1337.9,862.8c-6.1,0-10.9-5.8-10.9-13.7c0-8.5,3.5-14,10.4-14c2.5,0,4.3,0.6,5.7,1.5
	c0.8-0.8,1.7-1.6,2.6-2.3c-2-0.7-4.9-1.6-8.7-1.6c-9.3,0-16.1,6.4-16.1,16.5c0,9.8,7.8,16.1,16,16.1c3,0,6-0.6,8.7-2
	c-0.8-0.7-1.6-1.4-2.3-2.1C-1334.1,862.3-1336,862.8-1337.9,862.8 M-1357.6,859.2v-26.5c-2.8,1.2-6.9,2.2-10.2,2.7v1.3l2.5,0.1
	c2.3,0.1,2.5-0.4,2.5,2.3v20.2c0,3.8-0.3,4.2-4.9,4.6v1.4h15.2v-1.4C-1357.2,863.4-1357.6,863-1357.6,859.2 M-1316.9,862.8
	c-3.5,0-6.7-2-8.6-5.2c-0.1-0.2-0.2-0.4-0.4-0.6c-1.2-2.2-1.9-4.9-1.9-7.9c0-2.9,0.4-5.4,1.2-7.5c0.2-0.5,0.4-0.9,0.6-1.3
	c1.7-3.3,4.5-5.2,8.6-5.2c5.7,0,7.9,2.9,8.8,6.6h2.2c-0.3-2.2-0.7-5.9-0.6-6.7c-1.9-0.4-5.4-2.2-10.7-2.2c-3.3,0-6.2,0.8-8.7,2.3
	c-1.3,0.8-2.4,1.7-3.4,2.8c-2.5,2.8-4,6.7-4,11.4c0,4.5,1.6,8.2,4.2,11c0.8,0.8,1.7,1.6,2.6,2.2c2.7,1.9,5.9,2.9,9.2,2.9
	c3.8,0,7.6-0.9,10.8-3.3c0.1-0.8,0.7-3.1,1.2-4.9h-2.4C-1310.1,861.2-1313.4,862.8-1316.9,862.8 M-1294.9,852.8v-3.6
	c0-2.4-1.1-3.4-2.7-3.4c-1,0-2.1,0.7-2.8,1.4v-6.7c-0.8,0.3-2.1,0.5-3,0.7v0.5c1.2,0.1,1.3,0.2,1.3,1.4v9.6c0,1.3-0.2,1.4-1.3,1.6
	v0.5h4.3v-0.5c-1.1-0.1-1.2-0.3-1.2-1.5V848c0.5-0.6,1.2-0.9,1.9-0.9c1.2,0,1.8,0.8,1.8,2.4v3.4c0,1.3-0.1,1.4-1.2,1.5v0.5h4.2v-0.5
	C-1294.8,854.2-1294.9,854.1-1294.9,852.8 M-1305.4,853.9c-0.5,0-1.1-0.3-1.1-1.9v-5.1h2c0.3-0.2,0.3-0.6,0.1-0.8h-2.2v-2.8
	l-0.3-0.1l-1.5,1.4v1.4h-0.9l-0.6,0.6l0.1,0.2h1.3v5.8c0,1.6,0.7,2.4,2,2.4c0.2,0,0.5-0.1,0.8-0.3l1.4-0.7l-0.2-0.5
	C-1304.5,853.7-1304.9,853.9-1305.4,853.9 M-1363.2,877.6v-0.4c0.7-0.1,0.8-0.2,0.6-0.7c-0.1-0.4-0.3-0.9-0.5-1.5h-2.3
	c-0.2,0.4-0.3,0.9-0.5,1.3c-0.2,0.6-0.1,0.8,0.7,0.9v0.4h-2.6v-0.4c0.8-0.1,0.9-0.2,1.3-1.2l2.4-6l0.5-0.1c0.7,2,1.5,4.1,2.2,6.1
	c0.4,1,0.5,1.2,1.3,1.2v0.4H-1363.2z M-1364.2,871.8L-1364.2,871.8c-0.4,0.9-0.7,1.8-1,2.7h1.9L-1364.2,871.8z M-1355.9,877.6v-0.3
	c0.6-0.1,0.6-0.1,0.6-0.9v-2c0-0.8-0.3-1.2-0.9-1.2c-0.4,0-0.7,0.2-1,0.4v2.8c0,0.7,0.1,0.8,0.6,0.9v0.3h-2.7v-0.3
	c0.7-0.1,0.8-0.1,0.8-0.9V874c0-0.7-0.1-0.8-0.7-0.9v-0.3c0.6-0.1,1.3-0.2,1.9-0.5v0.9c0.2-0.2,0.5-0.3,0.7-0.5
	c0.3-0.2,0.6-0.3,0.9-0.3c0.9,0,1.5,0.7,1.5,1.8v2.2c0,0.7,0.1,0.8,0.7,0.9v0.3H-1355.9z M-1349.1,877.6v-0.3
	c0.6-0.1,0.6-0.1,0.6-0.9v-2c0-0.8-0.3-1.2-0.9-1.2c-0.4,0-0.7,0.2-1,0.4v2.8c0,0.7,0.1,0.8,0.6,0.9v0.3h-2.7v-0.3
	c0.7-0.1,0.8-0.1,0.8-0.9V874c0-0.7-0.1-0.8-0.6-0.9v-0.3c0.6-0.1,1.3-0.2,1.9-0.5v0.9c0.2-0.2,0.5-0.3,0.7-0.5
	c0.3-0.2,0.6-0.3,0.9-0.3c0.9,0,1.5,0.7,1.5,1.8v2.2c0,0.7,0.1,0.8,0.7,0.9v0.3H-1349.1z M-1345.7,877.6v-0.3
	c0.7-0.1,0.8-0.1,0.8-0.9v-2.3c0-0.7-0.1-0.8-0.7-0.9v-0.3c0.7-0.1,1.4-0.2,1.9-0.4v4c0,0.8,0.1,0.9,0.8,0.9v0.3L-1345.7,877.6
	L-1345.7,877.6z M-1345.1,870.8c0-0.4,0.3-0.7,0.7-0.7s0.7,0.3,0.7,0.7c0,0.4-0.3,0.7-0.7,0.7
	C-1344.7,871.5-1345.1,871.2-1345.1,870.8 M-1336.8,872.9c-0.6,0.1-0.7,0.2-1,0.8c-0.4,0.9-1,2.3-1.7,4.1h-0.4
	c-0.6-1.4-1.1-2.7-1.6-4.1c-0.2-0.6-0.4-0.7-0.9-0.8v-0.3h2.7v0.3c-0.6,0.1-0.6,0.2-0.4,0.6c0.3,0.8,0.7,2,1,2.6
	c0.3-0.7,0.7-1.7,0.9-2.5c0.2-0.4,0.1-0.6-0.5-0.7v-0.3h2.1v0.3H-1336.8z M-1332,876.5c-0.7,1-1.6,1.2-2,1.2c-1.5,0-2.3-1.1-2.3-2.5
	c0-0.9,0.3-1.6,0.8-2.1s1.1-0.8,1.7-0.8l0,0c1,0,1.8,0.9,1.8,1.8c0,0.2-0.1,0.4-0.3,0.4c-0.2,0-1.6,0.1-2.9,0.2c0,1.4,0.8,2,1.6,2
	c0.5,0,0.9-0.2,1.3-0.5L-1332,876.5z M-1335.1,874.3c0.5,0,1,0,1.6,0c0.2,0,0.3,0,0.3-0.2c0-0.6-0.3-1.2-0.8-1.2
	C-1334.5,872.8-1335,873.3-1335.1,874.3 M-1329,873.6c0.4-0.7,0.9-1.2,1.3-1.2c0.4,0,0.7,0.3,0.7,0.7c0,0.3-0.2,0.6-0.5,0.7
	c-0.1,0.1-0.3,0-0.3,0c-0.2-0.2-0.3-0.2-0.5-0.2c-0.3,0-0.5,0.2-0.8,0.7v2.1c0,0.7,0.1,0.8,1,0.9v0.3h-3v-0.3
	c0.7-0.1,0.8-0.1,0.8-0.9v-2.5c0-0.7-0.1-0.7-0.7-0.8v-0.3c0.6-0.1,1.3-0.2,1.9-0.5L-1329,873.6L-1329,873.6z M-1323.1,874
	c-0.3-0.7-0.7-1.2-1.2-1.2c-0.4,0-0.7,0.3-0.7,0.7c0,0.4,0.3,0.7,0.9,0.9c0.9,0.4,1.5,0.8,1.5,1.7c0,1.1-1.1,1.7-2,1.7
	c-0.6,0-1.2-0.2-1.4-0.4c-0.1-0.2-0.2-1-0.2-1.5h0.3c0.2,0.7,0.8,1.5,1.5,1.5c0.4,0,0.7-0.3,0.7-0.7c0-0.4-0.2-0.7-0.9-1
	c-0.6-0.3-1.5-0.7-1.5-1.7c0-0.9,0.7-1.6,1.9-1.6c0.5,0,0.8,0.1,1.1,0.2c0.1,0.3,0.3,1,0.3,1.3L-1323.1,874z M-1317.8,877.8
	c-0.3,0-0.5-0.1-0.6-0.2c-0.2-0.2-0.2-0.3-0.3-0.5c-0.5,0.3-1,0.7-1.3,0.7c-0.9,0-1.5-0.7-1.5-1.5c0-0.6,0.3-0.9,0.9-1.1
	c0.7-0.2,1.6-0.5,1.8-0.8v-0.3c0-0.8-0.3-1.2-0.8-1.2c-0.2,0-0.3,0.1-0.4,0.2c-0.1,0.2-0.2,0.4-0.3,0.8c-0.1,0.3-0.2,0.3-0.4,0.3
	c-0.3,0-0.6-0.3-0.6-0.5s0.1-0.3,0.4-0.5c0.4-0.3,1.2-0.7,1.9-0.8c0.4,0,0.8,0.1,1.1,0.3c0.5,0.4,0.6,0.9,0.6,1.5v2
	c0,0.5,0.2,0.7,0.4,0.7c0.1,0,0.3,0,0.4-0.1l0.1,0.3L-1317.8,877.8z M-1318.8,874.8c-0.2,0.1-0.5,0.3-0.8,0.4
	c-0.4,0.2-0.6,0.4-0.6,0.8c0,0.6,0.4,0.9,0.7,0.9c0.2,0,0.5-0.1,0.6-0.3L-1318.8,874.8L-1318.8,874.8z M-1314,873.6
	c0.4-0.7,0.9-1.2,1.3-1.2c0.4,0,0.7,0.3,0.7,0.7c0,0.3-0.2,0.6-0.5,0.7c-0.2,0.1-0.3,0-0.3,0c-0.2-0.2-0.3-0.2-0.5-0.2
	c-0.3,0-0.5,0.2-0.8,0.7v2.1c0,0.7,0.1,0.8,1,0.9v0.3h-3v-0.3c0.7-0.1,0.8-0.1,0.8-0.9v-2.5c0-0.7-0.1-0.7-0.7-0.8v-0.3
	c0.6-0.1,1.3-0.2,1.9-0.5L-1314,873.6L-1314,873.6z M-1306,872.8c-0.6,0.1-0.7,0.2-1,0.8c-0.3,0.6-0.7,1.6-1.4,3.3
	c-0.8,1.9-1,2.6-1.2,3.2c-0.1,0.2-0.2,0.3-0.4,0.3c-0.3,0-0.8-0.3-0.8-0.7c0-0.2,0.1-0.3,0.3-0.4c0.4-0.2,0.7-0.5,0.9-0.9
	c0.2-0.3,0.2-0.5,0.3-0.6c0.1-0.2,0-0.3,0-0.5c-0.6-1.5-1.1-3.1-1.4-3.7c-0.2-0.5-0.3-0.7-0.9-0.8v-0.3h2.7v0.3
	c-0.5,0.1-0.6,0.2-0.5,0.6l0.9,2.7c0.3-0.7,0.7-1.9,0.9-2.6c0.1-0.4,0-0.5-0.6-0.6v-0.3h2.1L-1306,872.8L-1306,872.8z"/>
</svg>
